<svg width="24" height="25" viewBox="0 0 24 25" fill="none" xmlns="http://www.w3.org/2000/svg">
<g clip-path="url(#clip0_243_108)">
<path d="M24 12.5588C24 5.93142 18.6274 0.558838 12 0.558838C5.37258 0.558838 0 5.93142 0 12.5588C0 18.5484 4.38825 23.5128 10.125 24.4131V16.0276H7.07812V12.5588H10.125V9.91509C10.125 6.90759 11.9165 5.24634 14.6576 5.24634C15.9705 5.24634 17.3438 5.48071 17.3438 5.48071V8.43384H15.8306C14.3399 8.43384 13.875 9.35882 13.875 10.3078V12.5588H17.2031L16.6711 16.0276H13.875V24.4131C19.6118 23.5128 24 18.5484 24 12.5588Z" fill="black"/>
</g>
<defs>
<clipPath id="clip0_243_108">
<rect width="24" height="24" fill="white" transform="translate(0 0.48584)"/>
</clipPath>
</defs>
</svg>