<svg width="24" height="25" viewBox="0 0 24 25" fill="none" xmlns="http://www.w3.org/2000/svg">
<g clip-path="url(#clip0_243_229)">
<path d="M24 12.3206C24 5.69314 18.6274 0.320557 12 0.320557C5.37258 0.320557 0 5.69314 0 12.3206C0 18.3101 4.38825 23.2745 10.125 24.1748V15.7893H7.07812V12.3206H10.125V9.67681C10.125 6.66931 11.9165 5.00806 14.6576 5.00806C15.9705 5.00806 17.3438 5.24243 17.3438 5.24243V8.19556H15.8306C14.3399 8.19556 13.875 9.12054 13.875 10.0695V12.3206H17.2031L16.6711 15.7893H13.875V24.1748C19.6118 23.2745 24 18.3101 24 12.3206Z" fill="black"/>
</g>
<defs>
<clipPath id="clip0_243_229">
<rect width="24" height="24" fill="white" transform="translate(0 0.247559)"/>
</clipPath>
</defs>
</svg>