<svg width="1440" height="245" viewBox="0 0 1440 245" fill="none" xmlns="http://www.w3.org/2000/svg">
<path d="M0 244.248L0.75 98.8858C506.25 347.707 598.125 -106.178 1440 119.281V244.248L0 244.248Z" fill="#F6F5F4"/>
<path d="M0 0.247559V88.438C51.1583 103.871 283.697 191.327 570.881 64.9212C458.1 114.562 168.311 121.439 0 0.247559Z" fill="url(#paint0_linear_243_214)"/>
<path d="M1440 244.248L1440 134.753C1376.58 115.592 1088.28 7.00803 732.241 163.951C872.063 102.317 1231.33 93.78 1440 244.248Z" fill="url(#paint1_linear_243_214)"/>
<path d="M120.186 147.485C280.433 190.129 710.352 77.4363 721.378 73.7701C732.404 70.1038 992.087 5.43906 1179.04 66.6245C1024.36 45.8585 861.886 101.105 799.567 122.989C737.249 144.874 264.297 225.357 120.186 147.485Z" fill="url(#paint2_linear_243_214)"/>
<defs>
<linearGradient id="paint0_linear_243_214" x1="720" y1="244.248" x2="720" y2="0.247559" gradientUnits="userSpaceOnUse">
<stop stop-color="#9E6E23"/>
<stop offset="1" stop-color="#E9C525"/>
</linearGradient>
<linearGradient id="paint1_linear_243_214" x1="720" y1="244.248" x2="720" y2="0.247559" gradientUnits="userSpaceOnUse">
<stop stop-color="#9E6E23"/>
<stop offset="1" stop-color="#E9C525"/>
</linearGradient>
<linearGradient id="paint2_linear_243_214" x1="1170.7" y1="130.597" x2="157.626" y2="158.232" gradientUnits="userSpaceOnUse">
<stop stop-color="#AB7D23"/>
<stop offset="1" stop-color="#F4D125"/>
</linearGradient>
</defs>
</svg>