<svg width="360" height="62" viewBox="0 0 360 62" fill="none" xmlns="http://www.w3.org/2000/svg">
<path d="M0 61.4858L0.1875 25.1454C126.562 87.3506 149.531 -26.1205 360 30.2442V61.4858L0 61.4858Z" fill="#F6F5F4"/>
<path d="M0 0.48584V22.5334C12.7896 26.3917 70.9241 48.2558 142.72 16.6542C114.525 29.0646 42.0779 30.7836 0 0.48584Z" fill="url(#paint0_linear_243_93)"/>
<path d="M360 61.4858L360 34.1121C344.144 29.3218 272.071 2.17595 183.06 41.4116C218.016 26.0033 307.833 23.8689 360 61.4858Z" fill="url(#paint1_linear_243_93)"/>
<path d="M30.0464 37.2951C70.1082 47.9562 177.588 19.783 180.345 18.8665C183.101 17.9499 248.022 1.78371 294.76 17.0801C256.09 11.8886 215.471 25.7001 199.892 31.1713C184.312 36.6424 66.0742 56.7632 30.0464 37.2951Z" fill="url(#paint2_linear_243_93)"/>
<defs>
<linearGradient id="paint0_linear_243_93" x1="180" y1="61.4858" x2="180" y2="0.48584" gradientUnits="userSpaceOnUse">
<stop stop-color="#9E6E23"/>
<stop offset="1" stop-color="#E9C525"/>
</linearGradient>
<linearGradient id="paint1_linear_243_93" x1="180" y1="61.4858" x2="180" y2="0.48584" gradientUnits="userSpaceOnUse">
<stop stop-color="#9E6E23"/>
<stop offset="1" stop-color="#E9C525"/>
</linearGradient>
<linearGradient id="paint2_linear_243_93" x1="292.674" y1="33.0732" x2="39.4064" y2="39.9819" gradientUnits="userSpaceOnUse">
<stop stop-color="#AB7D23"/>
<stop offset="1" stop-color="#F4D125"/>
</linearGradient>
</defs>
</svg>
