<svg width="24" height="25" viewBox="0 0 24 25" fill="none" xmlns="http://www.w3.org/2000/svg">
<g clip-path="url(#clip0_243_231)">
<path d="M24 11.9276C24 18.3809 18.72 23.6076 12.2133 23.6076C10.16 23.6076 8.21333 23.0742 6.50667 22.1409L0 24.2476L2.13333 17.9809C1.06667 16.2209 0.453333 14.1409 0.453333 11.9542C0.426667 5.47423 5.70667 0.247559 12.2133 0.247559C18.72 0.247559 24 5.47423 24 11.9276ZM12.2133 2.11423C6.74667 2.11423 2.32 6.51423 2.32 11.9276C2.32 14.0876 3.01333 16.0609 4.21333 17.6876L2.98667 21.3409L6.8 20.1409C8.37333 21.1809 10.24 21.7676 12.24 21.7676C17.68 21.7676 22.1333 17.3676 22.1333 11.9276C22.1333 6.48756 17.68 2.11423 12.2133 2.11423ZM18.16 14.6209C18.08 14.5142 17.8933 14.4342 17.6 14.2742C17.3067 14.1409 15.8933 13.4476 15.6267 13.3409C15.36 13.2342 15.1733 13.2076 14.9867 13.4742C14.8 13.7676 14.24 14.4076 14.08 14.5942C13.92 14.7809 13.7333 14.8076 13.4667 14.6742C13.1733 14.5409 12.24 14.2209 11.1467 13.2609C10.2933 12.5142 9.70667 11.5542 9.54667 11.2876C9.38667 10.9942 9.52 10.8342 9.68 10.7009C9.81333 10.5676 9.97333 10.3542 10.1067 10.1942C10.24 10.0342 10.2933 9.90089 10.4 9.71423C10.5067 9.52756 10.4533 9.36756 10.3733 9.20756C10.2933 9.07423 9.73333 7.66089 9.49333 7.07423C9.25333 6.51423 9.01333 6.59423 8.85333 6.59423C8.69333 6.59423 8.48 6.56756 8.29333 6.56756C8.10667 6.56756 7.78667 6.64756 7.52 6.91423C7.25333 7.20756 6.50667 7.90089 6.50667 9.31423C6.50667 10.7276 7.54667 12.0876 7.68 12.2742C7.81333 12.4609 9.68 15.4476 12.6133 16.5942C15.5467 17.7409 15.5467 17.3676 16.08 17.3142C16.6133 17.2609 17.7867 16.6209 18.0267 15.9542C18.24 15.3142 18.24 14.7542 18.16 14.6209Z" fill="black"/>
</g>
<defs>
<clipPath id="clip0_243_231">
<rect width="24" height="24" fill="white" transform="translate(0 0.247559)"/>
</clipPath>
</defs>
</svg>