<svg width="24" height="25" viewBox="0 0 24 25" fill="none" xmlns="http://www.w3.org/2000/svg">
<g clip-path="url(#clip0_243_110)">
<path d="M24 12.1658C24 18.6192 18.72 23.8458 12.2133 23.8458C10.16 23.8458 8.21333 23.3125 6.50667 22.3792L0 24.4858L2.13333 18.2192C1.06667 16.4592 0.453333 14.3792 0.453333 12.1925C0.426667 5.71251 5.70667 0.48584 12.2133 0.48584C18.72 0.48584 24 5.71251 24 12.1658ZM12.2133 2.35251C6.74667 2.35251 2.32 6.75251 2.32 12.1658C2.32 14.3258 3.01333 16.2992 4.21333 17.9258L2.98667 21.5792L6.8 20.3792C8.37333 21.4192 10.24 22.0058 12.24 22.0058C17.68 22.0058 22.1333 17.6058 22.1333 12.1658C22.1333 6.72584 17.68 2.35251 12.2133 2.35251ZM18.16 14.8592C18.08 14.7525 17.8933 14.6725 17.6 14.5125C17.3067 14.3792 15.8933 13.6858 15.6267 13.5792C15.36 13.4725 15.1733 13.4458 14.9867 13.7125C14.8 14.0058 14.24 14.6458 14.08 14.8325C13.92 15.0192 13.7333 15.0458 13.4667 14.9125C13.1733 14.7792 12.24 14.4592 11.1467 13.4992C10.2933 12.7525 9.70667 11.7925 9.54667 11.5258C9.38667 11.2325 9.52 11.0725 9.68 10.9392C9.81333 10.8058 9.97333 10.5925 10.1067 10.4325C10.24 10.2725 10.2933 10.1392 10.4 9.95251C10.5067 9.76584 10.4533 9.60584 10.3733 9.44584C10.2933 9.31251 9.73333 7.89917 9.49333 7.31251C9.25333 6.75251 9.01333 6.83251 8.85333 6.83251C8.69333 6.83251 8.48 6.80584 8.29333 6.80584C8.10667 6.80584 7.78667 6.88584 7.52 7.15251C7.25333 7.44584 6.50667 8.13917 6.50667 9.55251C6.50667 10.9658 7.54667 12.3258 7.68 12.5125C7.81333 12.6992 9.68 15.6858 12.6133 16.8325C15.5467 17.9792 15.5467 17.6058 16.08 17.5525C16.6133 17.4992 17.7867 16.8592 18.0267 16.1925C18.24 15.5525 18.24 14.9925 18.16 14.8592Z" fill="black"/>
</g>
<defs>
<clipPath id="clip0_243_110">
<rect width="24" height="24" fill="white" transform="translate(0 0.48584)"/>
</clipPath>
</defs>
</svg>